<svg width="120" height="120" viewBox="0 0 120 120" fill="none" xmlns="http://www.w3.org/2000/svg">
<g opacity="0.12">
<path d="M51.5625 105H40.3125C39.8216 105.01 39.3539 105.211 39.0101 105.562C38.6663 105.913 38.4737 106.384 38.4738 106.875C38.4738 107.366 38.6664 107.838 39.0102 108.188C39.354 108.539 39.8217 108.74 40.3126 108.75H51.5625C52.0535 108.74 52.5211 108.539 52.8649 108.188C53.2087 107.837 53.4013 107.366 53.4013 106.875C53.4013 106.384 53.2087 105.913 52.8649 105.562C52.5211 105.211 52.0535 105.01 51.5625 105Z" fill="#F5F3F6"/>
<path d="M105 37.5H103.125V33.75C103.123 32.2587 102.53 30.8289 101.476 29.7743C100.421 28.7198 98.9913 28.1266 97.5 28.125H90.9375V18.75C90.9359 17.2587 90.3427 15.8289 89.2882 14.7743C88.2336 13.7198 86.8038 13.1266 85.3125 13.125V9.375C85.3109 7.88366 84.7177 6.45386 83.6632 5.39932C82.6086 4.34478 81.1788 3.75163 79.6875 3.75H12.1875C10.6962 3.75163 9.26636 4.34478 8.21182 5.39932C7.15728 6.45386 6.56413 7.88366 6.5625 9.375V110.625C6.56413 112.116 7.15728 113.546 8.21182 114.601C9.26636 115.655 10.6962 116.248 12.1875 116.25H79.6875C81.1788 116.248 82.6086 115.655 83.6632 114.601C84.7177 113.546 85.3109 112.116 85.3125 110.625V76.875H105C106.491 76.8734 107.921 76.2802 108.976 75.2257C110.03 74.1711 110.623 72.7413 110.625 71.25V43.125C110.623 41.6337 110.03 40.2039 108.976 39.1493C107.921 38.0948 106.491 37.5016 105 37.5ZM99.375 33.75V63.75C99.3745 64.2471 99.1768 64.7238 98.8253 65.0753C98.4738 65.4268 97.9971 65.6245 97.5 65.625H80.3394C78.4362 65.6275 76.5772 66.1978 75 67.2629V33.75C75.0005 33.2529 75.1982 32.7762 75.5497 32.4247C75.9012 32.0732 76.3779 31.8755 76.875 31.875H97.5C97.9971 31.8755 98.4738 32.0732 98.8253 32.4247C99.1768 32.7762 99.3745 33.2529 99.375 33.75ZM71.25 67.2629C69.6728 66.1978 67.8138 65.6275 65.9106 65.625H48.75C48.2529 65.6245 47.7762 65.4268 47.4247 65.0753C47.0732 64.7238 46.8755 64.2471 46.875 63.75V33.75C46.8755 33.2529 47.0732 32.7762 47.4247 32.4247C47.7762 32.0732 48.2529 31.8755 48.75 31.875H69.375C69.8721 31.8755 70.3488 32.0732 70.7003 32.4247C71.0518 32.7762 71.2495 33.2529 71.25 33.75V67.2629ZM69.375 28.125H48.75C47.2587 28.1266 45.8289 28.7198 44.7743 29.7743C43.7198 30.8289 43.1266 32.2587 43.125 33.75V37.5H41.25C39.7587 37.5016 38.3289 38.0948 37.2743 39.1493C36.2198 40.2039 35.6266 41.6337 35.625 43.125V71.25C35.6266 72.7413 36.2198 74.1711 37.2743 75.2257C38.3289 76.2802 39.7587 76.8734 41.25 76.875H64.0669C64.4595 77.9695 65.1796 78.9166 66.1293 79.5875C67.079 80.2585 68.2122 80.6207 69.375 80.625H74.0625V97.5C74.062 97.9971 73.8643 98.4738 73.5128 98.8253C73.1613 99.1768 72.6846 99.3745 72.1875 99.375H19.6875C19.1904 99.3745 18.7137 99.1768 18.3622 98.8253C18.0107 98.4738 17.813 97.9971 17.8125 97.5V16.875C17.813 16.3779 18.0107 15.9012 18.3622 15.5497C18.7137 15.1982 19.1904 15.0005 19.6875 15H72.1875C72.6846 15.0005 73.1613 15.1982 73.5128 15.5497C73.8643 15.9012 74.062 16.3779 74.0625 16.875V28.9073C73.7274 29.1013 73.4132 29.3294 73.125 29.5879C72.1004 28.6509 70.7634 28.1293 69.375 28.125ZM87.1875 18.75V28.125H85.3125V16.875C85.8096 16.8755 86.2863 17.0732 86.6378 17.4247C86.9893 17.7762 87.187 18.2529 87.1875 18.75ZM79.6875 112.5H12.1875C11.6904 112.5 11.2137 112.302 10.8622 111.95C10.5107 111.599 10.313 111.122 10.3125 110.625V9.375C10.313 8.87787 10.5107 8.40125 10.8622 8.04972C11.2137 7.6982 11.6904 7.5005 12.1875 7.5H79.6875C80.1846 7.5005 80.6613 7.6982 81.0128 8.04972C81.3643 8.40125 81.562 8.87787 81.5625 9.375V28.125H77.8125V16.875C77.8109 15.3837 77.2177 13.9539 76.1632 12.8993C75.1086 11.8448 73.6788 11.2516 72.1875 11.25H19.6875C18.1962 11.2516 16.7664 11.8448 15.7118 12.8993C14.6573 13.9539 14.0641 15.3837 14.0625 16.875V97.5C14.0641 98.9913 14.6573 100.421 15.7118 101.476C16.7664 102.53 18.1962 103.123 19.6875 103.125H72.1875C73.6788 103.123 75.1086 102.53 76.1632 101.476C77.2177 100.421 77.8109 98.9913 77.8125 97.5V80.5438C78.5733 80.4124 79.299 80.1257 79.9442 79.7015C80.5893 79.2774 81.1402 78.7249 81.5625 78.0785V110.625C81.562 111.122 81.3643 111.599 81.0128 111.95C80.6613 112.302 80.1846 112.5 79.6875 112.5ZM106.875 71.25C106.875 71.7471 106.677 72.2238 106.325 72.5753C105.974 72.9268 105.497 73.1245 105 73.125H80.625C80.3788 73.1249 80.1349 73.1734 79.9074 73.2676C79.6799 73.3618 79.4732 73.4999 79.299 73.674C79.1249 73.8482 78.9868 74.0549 78.8926 74.2824C78.7984 74.5099 78.7499 74.7538 78.75 75C78.7495 75.4971 78.5518 75.9738 78.2003 76.3253C77.8488 76.6768 77.3721 76.8745 76.875 76.875H69.375C68.8796 76.8689 68.4063 76.6693 68.056 76.319C67.7057 75.9687 67.5061 75.4954 67.5 75C67.5001 74.7538 67.4516 74.5099 67.3574 74.2824C67.2632 74.0549 67.1251 73.8482 66.951 73.674C66.7768 73.4999 66.5701 73.3618 66.3426 73.2676C66.1151 73.1734 65.8712 73.1249 65.625 73.125H41.25C40.7529 73.1245 40.2762 72.9268 39.9247 72.5753C39.5732 72.2238 39.3755 71.7471 39.375 71.25V43.125C39.3755 42.6279 39.5732 42.1512 39.9247 41.7997C40.2762 41.4482 40.7529 41.2505 41.25 41.25H43.125V63.75C43.1266 65.2413 43.7198 66.6711 44.7743 67.7257C45.8289 68.7802 47.2587 69.3734 48.75 69.375H65.9106C67.0965 69.3787 68.2533 69.7424 69.228 70.4179C70.2026 71.0934 70.9492 72.0489 71.369 73.158C71.492 73.4561 71.6856 73.7198 71.9331 73.9265C72.1806 74.1332 72.4747 74.2766 72.7899 74.3445C73.2213 74.4126 73.6631 74.3324 74.0429 74.1169C74.4228 73.9013 74.7183 73.5633 74.881 73.158C75.3008 72.0489 76.0474 71.0934 77.0221 70.4179C77.9967 69.7424 79.1535 69.3787 80.3394 69.375H97.5C98.9913 69.3734 100.421 68.7802 101.476 67.7257C102.53 66.6711 103.123 65.2413 103.125 63.75V41.25H105C105.497 41.2505 105.974 41.4482 106.325 41.7997C106.677 42.1512 106.875 42.6279 106.875 43.125V71.25Z" fill="#F5F3F6"/>
<path d="M80.625 39.375C80.6249 39.6212 80.6734 39.8651 80.7676 40.0926C80.8618 40.3201 80.9999 40.5268 81.174 40.701C81.3482 40.8751 81.5549 41.0132 81.7824 41.1074C82.0099 41.2016 82.2538 41.2501 82.5 41.25H91.875C92.3723 41.25 92.8492 41.0525 93.2008 40.7008C93.5525 40.3492 93.75 39.8723 93.75 39.375C93.75 38.8777 93.5525 38.4008 93.2008 38.0492C92.8492 37.6975 92.3723 37.5 91.875 37.5H82.5C82.2538 37.4999 82.0099 37.5484 81.7824 37.6426C81.5549 37.7368 81.3482 37.8749 81.174 38.049C80.9999 38.2232 80.8618 38.4299 80.7676 38.6574C80.6734 38.8849 80.6249 39.1288 80.625 39.375ZM91.875 46.875H82.5C82.0091 46.8846 81.5414 47.0863 81.1976 47.4369C80.8538 47.7875 80.6612 48.259 80.6613 48.7501C80.6613 49.2411 80.8539 49.7126 81.1977 50.0631C81.5415 50.4137 82.0092 50.6154 82.5001 50.625H91.875C92.366 50.6154 92.8336 50.4137 93.1774 50.0631C93.5212 49.7125 93.7138 49.241 93.7138 48.75C93.7138 48.259 93.5212 47.7875 93.1774 47.4369C92.8336 47.0863 92.366 46.8846 91.875 46.875ZM91.875 56.25H82.5C82.0091 56.2596 81.5414 56.4613 81.1976 56.8119C80.8538 57.1625 80.6612 57.634 80.6613 58.1251C80.6613 58.6161 80.8539 59.0876 81.1977 59.4381C81.5415 59.7887 82.0092 59.9904 82.5001 60H91.875C92.366 59.9904 92.8336 59.7887 93.1774 59.4381C93.5212 59.0875 93.7138 58.616 93.7138 58.125C93.7138 57.634 93.5212 57.1625 93.1774 56.8119C92.8336 56.4613 92.366 56.2596 91.875 56.25ZM63.75 37.5H54.375C53.8841 37.5096 53.4164 37.7113 53.0726 38.0619C52.7288 38.4125 52.5362 38.884 52.5363 39.3751C52.5363 39.8661 52.7289 40.3376 53.0727 40.6881C53.4165 41.0387 53.8842 41.2404 54.3751 41.25H63.75C64.241 41.2404 64.7086 41.0387 65.0524 40.6881C65.3962 40.3375 65.5888 39.866 65.5888 39.375C65.5888 38.884 65.3962 38.4125 65.0524 38.0619C64.7086 37.7113 64.241 37.5096 63.75 37.5ZM63.75 46.875H54.375C53.8841 46.8846 53.4164 47.0863 53.0726 47.4369C52.7288 47.7875 52.5362 48.259 52.5363 48.7501C52.5363 49.2411 52.7289 49.7126 53.0727 50.0631C53.4165 50.4137 53.8842 50.6154 54.3751 50.625H63.75C64.241 50.6154 64.7086 50.4137 65.0524 50.0631C65.3962 49.7125 65.5888 49.241 65.5888 48.75C65.5888 48.259 65.3962 47.7875 65.0524 47.4369C64.7086 47.0863 64.241 46.8846 63.75 46.875ZM63.75 56.25H54.375C53.8841 56.2596 53.4164 56.4613 53.0726 56.8119C52.7288 57.1625 52.5362 57.634 52.5363 58.1251C52.5363 58.6161 52.7289 59.0876 53.0727 59.4381C53.4165 59.7887 53.8842 59.9904 54.3751 60H63.75C64.241 59.9904 64.7086 59.7887 65.0524 59.4381C65.3962 59.0875 65.5888 58.616 65.5888 58.125C65.5888 57.634 65.3962 57.1625 65.0524 56.8119C64.7086 56.4613 64.241 56.2596 63.75 56.25Z" fill="#F5F3F6"/>
</g>
</svg>
