<svg width="100" height="72" viewBox="0 0 100 72" fill="none" xmlns="http://www.w3.org/2000/svg">
<g clip-path="url(#clip0_516_8607)">
<path d="M94.6253 15.2442C94.6253 15.2442 90.5181 20.5206 89.7386 21.4046C88.3169 23.0111 87.4003 25.118 87.4003 25.118L85.3364 33.8424L83.0296 33.231L78.0143 31.9043C78.0143 31.9043 79.7965 27.1357 78.9333 25.6884C77.7824 23.7588 78.7779 22.5528 79.0402 21.7242C79.5258 20.1889 77.0454 17.3825 77.0454 17.3825L75.4562 10.3116L77.8552 9.99316L79.5962 15.7254L82.5792 18.3703L84.7038 18.4824C84.7038 18.4824 86.3064 18.8105 87.4719 18.275C88.5864 17.7612 92.5237 13.3508 92.5237 13.3508L94.1299 14.798L94.6253 15.2442ZM74.9487 24.1918V55.6161C74.9485 56.0098 74.8703 56.3996 74.7185 56.7633C74.5667 57.127 74.3442 57.4575 74.0638 57.7358C73.7835 58.0141 73.4506 58.2348 73.0844 58.3853C72.7182 58.5358 72.3256 58.6132 71.9293 58.6131H24.6179C24.2214 58.6131 23.8288 58.5355 23.4626 58.3847C23.0963 58.234 22.7635 58.013 22.4833 57.7345C22.203 57.456 21.9807 57.1253 21.8291 56.7614C21.6775 56.3975 21.5995 56.0075 21.5997 55.6137V24.1918C21.5994 23.7979 21.6772 23.4078 21.8287 23.0438C21.9803 22.6799 22.2026 22.3491 22.4829 22.0706C22.7632 21.792 23.096 21.5711 23.4624 21.4204C23.8287 21.2697 24.2214 21.1922 24.6179 21.1924H71.9293C72.7301 21.1924 73.4981 21.5084 74.0643 22.0709C74.6306 22.6334 74.9487 23.3963 74.9487 24.1918Z" fill="#800080"/>
<path d="M74.1304 22.1512H22.3366L22.7567 21.8316C22.7761 21.8149 22.7963 21.7992 22.8174 21.7846L47.4559 3.02356L48.2341 2.4314L73.3012 21.5204L74.1304 22.1512Z" fill="#C080C0"/>
<path d="M74.9487 24.1918L74.3186 24.644L69.7306 27.9449L47.4559 43.9719L26.0335 27.5831L21.5997 24.1918L21.6567 23.6093C21.7647 23.0631 22.0247 22.558 22.407 22.1512C22.5144 22.0351 22.6313 21.9282 22.7567 21.8316C22.7761 21.8149 22.7964 21.7992 22.8174 21.7845C23.3374 21.3992 23.9691 21.1914 24.6179 21.1924H71.9293C72.6795 21.1928 73.4027 21.4705 73.9581 21.9714C74.5135 22.4723 74.8615 23.1606 74.9341 23.9023C74.9439 23.9985 74.9488 24.0951 74.9487 24.1918Z" fill="#C080C0"/>
<path opacity="0.61" d="M22.7567 21.8291C22.6319 21.9264 22.515 22.0333 22.407 22.1487H22.3366L22.7567 21.8291Z" fill="url(#paint0_linear_516_8607)"/>
<path opacity="0.61" d="M74.9487 24.1918L74.3186 24.6453L69.7306 27.945L47.4559 43.9719L26.0335 27.5844L21.5997 24.1918L21.6567 23.6105C21.7648 23.064 22.0247 22.5585 22.407 22.1512C22.515 22.0357 22.6319 21.9289 22.7567 21.8316L22.8174 21.7858L47.4559 3.02356L48.2341 2.4314L73.3012 21.5204C73.7533 21.7491 74.1399 22.0874 74.4253 22.504C74.7108 22.9205 74.8858 23.4019 74.9341 23.9036C74.9439 23.9993 74.9488 24.0955 74.9487 24.1918Z" fill="url(#paint1_linear_516_8607)"/>
<path d="M69.7306 21.8702V27.9462L61.5101 33.8557L59.6246 35.2161L47.4559 43.9719L36.0108 35.2161L34.2395 33.8605L26.0335 27.5892V21.8702C26.0335 21.3977 26.2224 20.9447 26.5587 20.6106C26.895 20.2765 27.3511 20.0889 27.8267 20.0889H67.9386C68.414 20.0892 68.8698 20.277 69.2058 20.611C69.5419 20.9451 69.7306 21.3979 69.7306 21.8702Z" fill="white"/>
<path d="M63.7064 27.1971H31.2905C31.1095 27.1971 30.936 27.1257 30.808 26.9986C30.68 26.8715 30.6082 26.6991 30.6082 26.5193C30.6082 26.4303 30.6258 26.3422 30.6601 26.26C30.6944 26.1777 30.7446 26.103 30.808 26.0401C30.8714 25.9771 30.9466 25.9272 31.0294 25.8931C31.1121 25.8591 31.2009 25.8416 31.2905 25.8416H63.7064C63.796 25.8416 63.8847 25.8591 63.9675 25.8931C64.0503 25.9272 64.1255 25.9771 64.1888 26.0401C64.2522 26.103 64.3024 26.1777 64.3367 26.26C64.371 26.3422 64.3887 26.4303 64.3887 26.5193C64.3887 26.6991 64.3168 26.8715 64.1888 26.9986C64.0609 27.1257 63.8873 27.1971 63.7064 27.1971Z" fill="#FAE1C8"/>
<path d="M63.7064 31.2073H31.2905C31.1095 31.2073 30.936 31.1359 30.808 31.0087C30.68 30.8816 30.6082 30.7092 30.6082 30.5295C30.6082 30.3497 30.68 30.1773 30.808 30.0502C30.936 29.9231 31.1095 29.8517 31.2905 29.8517H63.7064C63.8873 29.8517 64.0609 29.9231 64.1888 30.0502C64.3168 30.1773 64.3887 30.3497 64.3887 30.5295C64.3887 30.7092 64.3168 30.8816 64.1888 31.0087C64.0609 31.1359 63.8873 31.2073 63.7064 31.2073Z" fill="#FAE1C8"/>
<path d="M61.5101 33.8605L59.6246 35.2161H36.0108L34.2382 33.8605H61.5101Z" fill="#FAE1C8"/>
<path opacity="0.05" d="M47.4559 43.9718L27.6834 58.6154H67.6363L47.4559 43.9718Z" fill="#000405"/>
<path d="M30.4005 10.8784C29.405 8.75703 25.6656 9.10557 25.6656 9.10557C27.9724 7.75361 27.5304 4.32004 27.5025 4.11743C28.5114 7.1108 31.9946 6.44989 32.3066 6.38477C29.9938 6.9516 30.4005 10.8784 30.4005 10.8784ZM23.9173 15.231C23.2848 13.8827 20.9064 14.1046 20.9064 14.1046C22.4119 13.2157 22.0707 10.9279 22.0707 10.9279V10.9412C22.7166 12.8334 24.9262 12.4137 25.1229 12.3727C23.6587 12.7345 23.9173 15.231 23.9173 15.231Z" fill="#AA55AA"/>
<path d="M87.603 11.18C87.8961 10.9459 88.267 10.8297 88.6423 10.8543C88.9169 10.8432 89.1857 10.9354 89.395 11.1124C89.5561 11.2923 89.6585 11.5164 89.6888 11.7552C89.7481 12.0513 89.7705 12.3534 89.7556 12.6549C89.7289 13.2085 89.5844 13.7946 89.8248 14.2951C89.8822 14.414 89.9594 14.5225 90.053 14.6159C90.1617 14.7368 90.313 14.8115 90.4755 14.8246C90.5564 14.8282 90.6358 14.8029 90.6995 14.7533C90.7632 14.7038 90.8069 14.6332 90.8228 14.5544C90.7419 14.7332 90.6209 14.8911 90.469 15.0161C90.317 15.1411 90.1382 15.2297 89.9464 15.2753C89.7545 15.3208 89.5547 15.322 89.3623 15.2788C89.1699 15.2356 88.99 15.1491 88.8365 15.026L89.0478 15.4517C88.8729 15.4068 88.7035 15.3429 88.5427 15.2612C88.0268 14.9826 87.7378 14.4169 87.6006 13.8453C87.4792 13.3207 87.4549 12.7792 87.3408 12.2521C87.2522 11.8481 87.274 11.4718 87.603 11.18Z" fill="#550055"/>
<path d="M87.4477 11.7588C87.5525 11.7555 87.657 11.7714 87.756 11.8059C87.8381 11.8397 87.9092 11.8953 87.9616 11.9666C88.0141 12.0378 88.0459 12.122 88.0535 12.2099C88.058 12.2983 88.0365 12.386 87.9917 12.4625C87.9468 12.5389 87.8806 12.6008 87.801 12.6404C87.6972 12.6829 87.5853 12.7022 87.4732 12.6971C87.3712 12.6971 87.268 12.6971 87.166 12.6875C87.1368 12.6876 87.108 12.6805 87.0822 12.667C87.0561 12.6457 87.0364 12.6178 87.0252 12.5862C86.9588 12.4548 86.9086 12.3159 86.8758 12.1725C86.7921 11.7287 87.0932 11.7552 87.4477 11.7588Z" fill="#C080C0"/>
<path d="M85.4723 15.9932C85.4723 15.9932 85.4529 16.3417 85.4286 16.7952C85.408 17.1775 85.3825 17.6394 85.3619 18.0229C85.3265 18.6717 85.0459 19.2832 84.5764 19.7355C84.302 20.0141 83.6476 20.5339 83.1486 20.3493C82.9058 20.2601 82.8973 19.9562 82.9483 19.7741C83.0606 19.4421 83.1232 19.0954 83.134 18.7453C83.142 18.4619 83.1163 18.1785 83.0575 17.9011C82.7443 17.1256 85.4723 15.9932 85.4723 15.9932Z" fill="url(#paint2_linear_516_8607)"/>
<path d="M85.4724 15.9932C85.4724 15.9932 85.4529 16.3417 85.4286 16.7952C85.2368 17.2197 85.0571 17.5658 84.9588 17.7383C84.7609 18.0868 83.9475 18.6356 83.1377 18.7453C83.1457 18.4619 83.12 18.1785 83.0612 17.9011C82.7443 17.1256 85.4724 15.9932 85.4724 15.9932Z" fill="url(#paint3_linear_516_8607)"/>
<path d="M83.0964 11.3753C82.7389 11.3969 82.3896 11.4914 82.0705 11.6529C81.7513 11.8144 81.4691 12.0394 81.2413 12.314C81.0135 12.5886 80.845 12.9068 80.7465 13.2489C80.6479 13.591 80.6213 13.9496 80.6682 14.3023C80.7494 15.356 81.0217 16.3865 81.472 17.3439C82.3218 18.7911 84.4756 17.6008 84.8168 17.005C85.1579 16.4092 86.4667 13.7222 85.9167 12.9612C85.5379 12.4474 84.4877 11.3198 83.0964 11.3753Z" fill="url(#paint4_linear_516_8607)"/>
<path d="M82.3315 9.90517C83.2453 9.64002 84.22 9.6683 85.1166 9.98597C85.9993 10.3188 86.7605 11.0039 87.0968 11.8806C87.3861 12.6932 87.3584 13.5839 87.0191 14.3771C86.6774 15.1639 86.133 15.8473 85.4408 16.3586C85.2623 15.8159 85.8123 15.3335 86.026 14.8041C86.0755 14.7062 86.0864 14.5935 86.0563 14.4881C85.9786 14.2915 85.6824 14.2698 85.5136 14.3976C85.3449 14.5255 85.2708 14.7414 85.2089 14.9428C85.3728 14.0804 85.4942 13.0674 84.8799 12.4354C84.5157 12.0616 83.9657 11.9217 83.4412 11.9168C82.9595 11.9154 82.4827 12.0122 82.0402 12.2012C81.5977 12.3902 81.1989 12.6673 80.8686 13.0155C80.6755 13.2218 80.4011 13.475 80.1559 13.3327C80.0796 13.2809 80.0198 13.2085 79.9835 13.1241C79.2587 11.6985 81.1624 10.2236 82.3315 9.90517Z" fill="#550055"/>
<path d="M83.5043 11.4983C82.8973 11.233 82.2599 11.0159 81.6007 11.0159C80.9414 11.0159 80.2579 11.2378 79.822 11.7298C79.5945 12.004 79.4288 12.3236 79.3364 12.6669C79.2632 12.8817 79.2343 13.1089 79.2514 13.3351C79.2778 13.499 79.3184 13.6605 79.3728 13.8175C79.4869 14.2082 79.5355 14.6617 79.2866 14.9897C79.2405 15.0551 79.18 15.1093 79.1098 15.1482C79.0396 15.187 78.9614 15.2096 78.8811 15.2141C78.8007 15.2155 78.7226 15.1877 78.6614 15.136C78.6001 15.0842 78.56 15.0121 78.5485 14.9331C78.4416 15.2334 78.6165 15.5855 78.8945 15.7435C79.0377 15.8159 79.1947 15.8574 79.3553 15.865C79.5158 15.8727 79.6761 15.8465 79.8257 15.7881C79.9514 15.7487 80.0681 15.6852 80.1693 15.6012C80.2691 15.5056 80.3513 15.3934 80.4121 15.2695C80.6658 14.8125 80.7933 14.3047 80.9827 13.8114C81.1721 13.3182 81.4465 12.8466 81.8945 12.5692C82.2494 12.3768 82.6483 12.2783 83.0527 12.2834C83.4546 12.2701 83.8588 12.3027 84.2595 12.2665C84.6601 12.2303 84.37 11.994 84.1976 11.8697C83.98 11.7226 83.7477 11.5981 83.5043 11.4983Z" fill="#550055"/>
<path d="M99.8106 7.17467C99.9138 7.25427 98.9474 8.00201 98.9474 8.00201C98.9474 8.00201 98.4957 8.77507 98.0368 8.98975C97.5779 9.20442 94.1299 14.7968 94.1299 14.7968L92.7689 13.5715L95.7046 9.64824C95.7046 9.64824 96.6758 7.79939 96.5678 6.99497C96.5678 6.99497 96.626 6.04462 96.9186 6.48603C97.125 6.8008 96.9927 7.29648 97.2367 7.34954C97.2638 7.35196 97.2909 7.34607 97.3144 7.33266C97.5168 7.21059 97.7025 7.06303 97.8668 6.89366C98.3525 6.43417 98.9328 5.79497 98.9328 5.79497C98.9328 5.79497 99.2509 5.6611 99.2108 5.79497C99.1708 5.92884 98.5868 6.83216 98.554 6.8804C98.6086 6.83095 99.5046 6.03618 99.6467 6.09768C99.7887 6.15919 98.9522 7.07457 98.9037 7.12763C98.9559 7.09145 99.9113 6.43055 99.983 6.48964C100.118 6.60181 99.2545 7.34593 99.1829 7.40261C99.2375 7.37366 99.7122 7.09748 99.8106 7.17467Z" fill="url(#paint5_linear_516_8607)"/>
<path d="M98.7859 7.74753C98.7135 7.77097 98.6366 7.77717 98.5613 7.76562C98.3165 7.74712 98.0708 7.74309 97.8256 7.75356C97.6605 7.7608 97.3193 7.87416 97.3108 7.61969C97.3108 7.55215 97.3278 7.48582 97.3242 7.41828C97.3242 7.38934 97.3169 7.3604 97.312 7.33145C97.5144 7.20938 97.7001 7.06182 97.8644 6.89246C97.9388 6.91714 98.0091 6.95249 98.0732 6.99738C98.2351 7.1011 98.3946 7.20361 98.5516 7.30492C98.6366 7.3604 98.7216 7.41587 98.8029 7.47617C98.8389 7.49851 98.8676 7.53077 98.8855 7.56904C98.8933 7.60571 98.8875 7.64397 98.8692 7.67676C98.851 7.70956 98.8214 7.73469 98.7859 7.74753Z" fill="url(#paint6_linear_516_8607)"/>
<path d="M75.0786 0.894833C74.9475 0.909306 75.3724 2.05021 75.3724 2.05021C75.3724 2.05021 75.3457 2.94388 75.6213 3.36599C75.8969 3.7881 75.858 10.2585 75.858 10.2585L77.6646 10.0172L77.2542 5.14368C77.2542 5.14368 77.4108 3.06448 77.9292 2.43855C77.9292 2.43855 78.3833 1.60036 77.9013 1.82227C77.5589 1.98147 77.4072 2.47111 77.1729 2.3891C77.1484 2.37709 77.1284 2.35766 77.1158 2.33363C77.0056 2.12463 76.9239 1.90196 76.873 1.67152C76.7018 1.02629 76.5513 0.179657 76.5513 0.179657C76.5513 0.179657 76.357 -0.0977295 76.3254 0.0361398C76.2939 0.170009 76.3048 1.24217 76.306 1.30368C76.2854 1.23493 75.9479 0.0867931 75.79 0.0662905C75.6322 0.045788 75.8617 1.26026 75.8762 1.33021C75.8495 1.27232 75.3906 0.211014 75.2959 0.223074C75.1223 0.248401 75.4671 1.33624 75.4926 1.41704C75.4586 1.36398 75.2024 0.882773 75.0786 0.894833Z" fill="url(#paint7_linear_516_8607)"/>
<path d="M75.6419 1.91877C75.6911 1.976 75.753 2.02102 75.8228 2.05023C76.0406 2.16304 76.2514 2.28869 76.4541 2.42651C76.5913 2.51937 76.8184 2.79676 76.9628 2.58209C77.0017 2.52661 77.0199 2.46148 77.0588 2.4048C77.0764 2.38083 77.0955 2.35787 77.1158 2.33606C77.0056 2.12706 76.9239 1.90439 76.873 1.67395C76.7967 1.65603 76.7181 1.64953 76.6399 1.65465L76.0705 1.6655C75.9685 1.6655 75.8665 1.6655 75.7645 1.67877C75.7214 1.67858 75.6791 1.69118 75.6431 1.71495C75.6183 1.74309 75.6045 1.7792 75.6043 1.81664C75.604 1.85407 75.6174 1.89034 75.6419 1.91877Z" fill="url(#paint8_linear_516_8607)"/>
<path d="M68.6768 57.7942C68.1912 58.7795 67.8379 59.5454 67.8379 59.5454L61.7274 59.8348C61.7274 59.8348 62.74 57.1731 64.3875 57.8606C64.9447 58.0921 66.9637 57.6567 66.9637 57.6567L67.0269 57.4553L68.6768 57.7942Z" fill="url(#paint9_linear_516_8607)"/>
<path d="M90.3335 58.0921L89.3975 58.6131L81.3846 50.2457L80.5007 39.0754L73.1944 45.6591C73.1944 45.6591 73.3898 50.1926 70.8354 53.7395C70.3777 54.3751 69.4465 56.2215 68.7424 57.664C68.7205 57.7086 68.6986 57.7544 68.678 57.799L68.5408 57.7713L68.0637 57.6724L67.0281 57.4601L70.3862 43.9767L78.0167 31.9092L83.0321 33.2358L85.3388 33.8473C85.3388 33.8473 86.8953 36.9456 85.3388 44.9645L84.3068 49.5546C84.3068 49.5546 88.4663 51.758 89.7483 56.1166L90.3323 58.0897L90.3335 58.0921Z" fill="#550055"/>
<path d="M90.3335 58.092L91.2841 59.0798L88.8718 61.5787H85.7151C85.7151 61.5787 86.3877 60.4752 87.7329 60.3003C89.0781 60.1254 89.3999 58.6118 89.3999 58.6118L90.3335 58.092Z" fill="url(#paint10_linear_516_8607)"/>
<path opacity="0.22" d="M26.2011 8.9319L25.6681 9.10557C27.9748 7.75361 27.5329 4.32004 27.505 4.11743C27.5414 4.28025 28.078 6.54638 27.7854 7.2905C27.42 8.22035 26.2011 8.9319 26.2011 8.9319ZM22.3888 13.0782C22.1072 13.4654 20.9878 14.0624 20.9113 14.1022C22.4168 13.2133 22.0756 10.9255 22.0756 10.9255V10.9387C22.1351 11.0955 22.6632 12.6995 22.3888 13.0782Z" fill="white"/>
<path opacity="0.22" d="M21.6895 25.8416L46.4166 44.7413L47.4559 43.9719L21.5997 24.1918L21.6895 25.8416ZM48.2742 44.6195L74.9487 25.5474V24.246L47.4559 44.0249L48.2742 44.6195Z" fill="white"/>
<path opacity="0.22" d="M74.9341 23.9566L74.8613 24.1592L74.3186 24.6983C74.6998 24.0446 73.6229 22.5274 73.6229 22.5274L73.1931 22.2078L71.9026 21.243L47.4559 3.07776L48.2341 2.4856L73.3012 21.5734C73.753 21.8024 74.1395 22.1407 74.4249 22.5572C74.7103 22.9738 74.8854 23.455 74.9341 23.9566Z" fill="white"/>
<path opacity="0.61" d="M94.6253 15.2442C94.6253 15.2442 90.518 20.5206 89.7386 21.4046C88.3169 23.011 87.4003 25.118 87.4003 25.118L85.3364 33.8424L83.0296 33.2309C83.0296 33.2309 85.1834 25.2313 86.049 23.5332C86.9147 21.8351 94.1275 14.7968 94.1275 14.7968L94.6253 15.2442Z" fill="url(#paint11_linear_516_8607)"/>
<path d="M90.3323 58.0897C90.2898 57.969 88.9191 54.1869 86.8612 52.601C84.7718 50.9897 83.5577 48.7658 83.5577 48.7658C83.066 44.4965 83.032 33.231 83.032 33.231L85.3388 33.8424C85.3388 33.8424 86.8952 36.9407 85.3388 44.9596L84.3068 49.5498C84.3068 49.5498 88.4662 51.758 89.7483 56.1166L90.3323 58.0897ZM73.1944 45.6567C73.1944 45.6567 73.3898 50.1902 70.8354 53.7371C70.3777 54.3727 69.4465 56.2191 68.7423 57.6615L68.5408 57.7688L68.0637 57.67L72.024 45.2611C72.024 45.2611 76.8208 39.6157 77.6986 39.0754C78.5764 38.5351 80.5007 39.0754 80.5007 39.0754L73.1944 45.6567Z" fill="#25233A"/>
</g>
<defs>
<linearGradient id="paint0_linear_516_8607" x1="22.356" y1="22.5069" x2="22.8156" y2="21.2494" gradientUnits="userSpaceOnUse">
<stop offset="0.36" stop-color="#00272E"/>
<stop offset="0.75" stop-color="#3F80A1" stop-opacity="0.25"/>
<stop offset="1" stop-color="#69B9EB" stop-opacity="0"/>
</linearGradient>
<linearGradient id="paint1_linear_516_8607" x1="41.6392" y1="41.8469" x2="55.1192" y2="4.94698" gradientUnits="userSpaceOnUse">
<stop offset="0.36" stop-color="#800080"/>
<stop offset="0.75" stop-color="#800080" stop-opacity="0.25"/>
<stop offset="1" stop-color="#800080" stop-opacity="0"/>
</linearGradient>
<linearGradient id="paint2_linear_516_8607" x1="82.924" y1="18.1906" x2="85.4723" y2="18.1906" gradientUnits="userSpaceOnUse">
<stop stop-color="#ECC4D7"/>
<stop offset="0.42" stop-color="#EFD4D1"/>
<stop offset="1" stop-color="#F2EAC9"/>
</linearGradient>
<linearGradient id="paint3_linear_516_8607" x1="84.2741" y1="16.7819" x2="83.7553" y2="22.6378" gradientUnits="userSpaceOnUse">
<stop stop-color="#ECC4D7"/>
<stop offset="0.42" stop-color="#EFD4D1"/>
<stop offset="1" stop-color="#F2EAC9"/>
</linearGradient>
<linearGradient id="paint4_linear_516_8607" x1="80.6476" y1="14.7027" x2="86.0515" y2="14.7027" gradientUnits="userSpaceOnUse">
<stop stop-color="#ECC4D7"/>
<stop offset="0.42" stop-color="#EFD4D1"/>
<stop offset="1" stop-color="#F2EAC9"/>
</linearGradient>
<linearGradient id="paint5_linear_516_8607" x1="92.7689" y1="10.2657" x2="100" y2="10.2657" gradientUnits="userSpaceOnUse">
<stop stop-color="#ECC4D7"/>
<stop offset="0.42" stop-color="#EFD4D1"/>
<stop offset="1" stop-color="#F2EAC9"/>
</linearGradient>
<linearGradient id="paint6_linear_516_8607" x1="98.3367" y1="9.41547" x2="97.6153" y2="3.77727" gradientUnits="userSpaceOnUse">
<stop stop-color="#ECC4D7"/>
<stop offset="0.42" stop-color="#EFD4D1"/>
<stop offset="1" stop-color="#F2EAC9"/>
</linearGradient>
<linearGradient id="paint7_linear_516_8607" x1="79.4834" y1="7.23342" x2="73.3751" y2="3.39107" gradientUnits="userSpaceOnUse">
<stop stop-color="#ECC4D7"/>
<stop offset="0.42" stop-color="#EFD4D1"/>
<stop offset="1" stop-color="#F2EAC9"/>
</linearGradient>
<linearGradient id="paint8_linear_516_8607" x1="75.1956" y1="3.61484" x2="78.7937" y2="-0.804329" gradientUnits="userSpaceOnUse">
<stop stop-color="#ECC4D7"/>
<stop offset="0.42" stop-color="#EFD4D1"/>
<stop offset="1" stop-color="#F2EAC9"/>
</linearGradient>
<linearGradient id="paint9_linear_516_8607" x1="64.691" y1="56.6967" x2="65.6153" y2="60.5733" gradientUnits="userSpaceOnUse">
<stop stop-color="#68E1FD"/>
<stop offset="0.01" stop-color="#67DDF9"/>
<stop offset="0.12" stop-color="#5CB3CE"/>
<stop offset="0.24" stop-color="#538EA9"/>
<stop offset="0.37" stop-color="#4C718B"/>
<stop offset="0.5" stop-color="#465A73"/>
<stop offset="0.63" stop-color="#424A63"/>
<stop offset="0.79" stop-color="#404059"/>
<stop offset="0.99" stop-color="#3F3D56"/>
</linearGradient>
<linearGradient id="paint10_linear_516_8607" x1="87.7633" y1="59.3077" x2="89.3097" y2="61.4859" gradientUnits="userSpaceOnUse">
<stop stop-color="#68E1FD"/>
<stop offset="0.01" stop-color="#67DDF9"/>
<stop offset="0.12" stop-color="#5CB3CE"/>
<stop offset="0.24" stop-color="#538EA9"/>
<stop offset="0.37" stop-color="#4C718B"/>
<stop offset="0.5" stop-color="#465A73"/>
<stop offset="0.63" stop-color="#424A63"/>
<stop offset="0.79" stop-color="#404059"/>
<stop offset="0.99" stop-color="#3F3D56"/>
</linearGradient>
<linearGradient id="paint11_linear_516_8607" x1="93.4719" y1="26.8136" x2="84.2998" y2="21.4929" gradientUnits="userSpaceOnUse">
<stop/>
<stop offset="0.98" stop-opacity="0"/>
</linearGradient>
<clipPath id="clip0_516_8607">
<rect width="100" height="72" fill="white"/>
</clipPath>
</defs>
</svg>
