<svg width="120" height="120" viewBox="0 0 120 120" fill="none" xmlns="http://www.w3.org/2000/svg">
<g opacity="0.12">
<path d="M110.625 82.5H108.75V20.625C108.75 19.1332 108.157 17.7024 107.102 16.6475C106.048 15.5926 104.617 15 103.125 15H16.875C15.3832 15 13.9524 15.5926 12.8975 16.6475C11.8426 17.7024 11.25 19.1332 11.25 20.625V82.5H9.375C7.88316 82.5 6.45242 83.0926 5.39752 84.1475C4.34263 85.2024 3.75 86.6332 3.75 88.125V91.875C3.75 95.356 5.13281 98.6944 7.59422 101.156C10.0556 103.617 13.394 105 16.875 105H103.125C106.606 105 109.944 103.617 112.406 101.156C114.867 98.6944 116.25 95.356 116.25 91.875V88.125C116.25 86.6332 115.657 85.2024 114.602 84.1475C113.548 83.0926 112.117 82.5 110.625 82.5ZM66.3937 88.575C66.2911 88.991 66.049 89.3593 65.7079 89.6186C65.3667 89.8779 64.9471 90.0125 64.5187 90H55.425C54.9967 90.0125 54.577 89.8779 54.2359 89.6186C53.8947 89.3593 53.6527 88.991 53.55 88.575L53.025 86.25H66.975L66.3937 88.575ZM15 82.5V20.625C15 20.1277 15.1975 19.6508 15.5492 19.2992C15.9008 18.9475 16.3777 18.75 16.875 18.75H103.125C103.622 18.75 104.099 18.9475 104.451 19.2992C104.802 19.6508 105 20.1277 105 20.625V82.5" fill="#F5F3F6"/>
<path d="M60 28.125C55.5499 28.125 51.1998 29.4446 47.4997 31.9169C43.7996 34.3893 40.9157 37.9033 39.2127 42.0146C37.5097 46.126 37.0642 50.65 37.9323 55.0145C38.8005 59.3791 40.9434 63.3882 44.0901 66.5349C47.2368 69.6816 51.2459 71.8245 55.6105 72.6927C59.975 73.5608 64.499 73.1153 68.6104 71.4123C72.7217 69.7093 76.2357 66.8254 78.7081 63.1253C81.1804 59.4252 82.5 55.0751 82.5 50.625C82.5 44.6576 80.1295 38.9347 75.9099 34.7151C71.6903 30.4955 65.9674 28.125 60 28.125ZM68.3438 52.2937L53.3438 59.7937C53.0825 59.9276 52.7935 59.9982 52.5 60C52.149 60.0011 51.8046 59.9037 51.5063 59.7188C51.236 59.5499 51.0133 59.3149 50.8591 59.0361C50.705 58.7572 50.6244 58.4436 50.625 58.125V43.125C50.626 42.8054 50.7086 42.4913 50.8651 42.2126C51.0216 41.9339 51.2468 41.6999 51.5192 41.5327C51.7916 41.3655 52.1022 41.2707 52.4215 41.2573C52.7409 41.2439 53.0583 41.3124 53.3438 41.4563L68.3438 48.9563C68.6509 49.1136 68.9086 49.3526 69.0886 49.6471C69.2686 49.9415 69.3638 50.2799 69.3638 50.625C69.3638 50.9701 69.2686 51.3085 69.0886 51.6029C68.9086 51.8974 68.6509 52.1364 68.3438 52.2937Z" fill="#F5F3F6"/>
<path d="M54.375 55.0875L63.3 50.625L54.375 46.1625V55.0875Z" fill="#F5F3F6"/>
</g>
</svg>
